<svg xmlns="http://www.w3.org/2000/svg" viewBox="0 0 512 512">
  <path fill="#fff" d="M256,0C114.6,0,0,114.6,0,256s114.6,256,256,256s256-114.6,256-256S397.4,0,256,0z M256,448
    c-105.9,0-192-86.1-192-192S150.1,64,256,64s192,86.1,192,192S361.9,448,256,448z"/>
  <path fill="#7c3aed" d="M256,128c-70.7,0-128,57.3-128,128s57.3,128,128,128s128-57.3,128-128S326.7,128,256,128z
    M256,336c-44.1,0-80-35.9-80-80s35.9-80,80-80s80,35.9,80,80S300.1,336,256,336z"/>
  <circle fill="#3b82f6" cx="256" cy="256" r="48"/>
</svg> 